<svg xmlns="http://www.w3.org/2000/svg" xmlns:xlink="http://www.w3.org/1999/xlink" style="enable-background:new 0 0 40 40" id="Layer_1" x="0" y="0" version="1.1" viewBox="0 0 40 40" xml:space="preserve"><style type="text/css">.st0,.st1{fill:none;stroke:#5886a8;stroke-miterlimit:10}.st1{stroke-linejoin:round}.st2{stroke-width:1.0377}.st2,.st3{fill:none;stroke:#5886a8;stroke-linejoin:round;stroke-miterlimit:10}.st3,.st4{opacity:.6}.st5,.st6,.st7{fill:none;stroke:#5886a8;stroke-linejoin:round}.st6{stroke-dasharray:2.6667,2.6667}.st7{stroke-dasharray:2.8182,2.8182}.st8{opacity:.6}.st8,.st9{fill:#5886a8}</style><circle cx="13" cy="9.5" r="2" class="st0"/><path d="M9,15.5c0,0,8,0,8,0c0-2.2-1.8-4-4-4S9,13.3,9,15.5z" class="st0"/><line x1="22" x2="20" y1="36.5" y2="38.5" class="st1"/><rect width="28" height="14" x="6" y="4.5" class="st1"/><line x1="17" x2="31" y1="7.5" y2="7.5" class="st2"/><line x1="18" x2="26" y1="9.5" y2="9.5" class="st3"/><line x1="18" x2="26" y1="11.5" y2="11.5" class="st3"/><line x1="19" x2="24" y1="13.5" y2="13.5" class="st3"/><line x1="20" x2="22" y1="15.5" y2="15.5" class="st3"/><g class="st4"><g><line x1="14" x2="12.5" y1="35.5" y2="35.5" class="st5"/><line x1="9.8" x2="5.8" y1="35.5" y2="35.5" class="st6"/><polyline points="4.5 35.5 3 35.5 3 34" class="st5"/><line x1="3" x2="3" y1="31.2" y2="4.4" class="st7"/><polyline points="3 3 3 1.5 4.5 1.5" class="st5"/><line x1="7.3" x2="34.1" y1="1.5" y2="1.5" class="st7"/><polyline points="35.5 1.5 37 1.5 37 3" class="st5"/><line x1="37" x2="37" y1="5.8" y2="32.6" class="st7"/><polyline points="37 34 37 35.5 35.5 35.5" class="st5"/><line x1="32.8" x2="28.8" y1="35.5" y2="35.5" class="st6"/><line x1="27.5" x2="26" y1="35.5" y2="35.5" class="st5"/></g></g><polyline points="20 20 20 28 20 28" class="st1"/><path d="M28.4,30.9l-0.7-0.7l-1.1,1.1v-4.8c0-0.3-0.2-0.5-0.5-0.5h-6h-6c-0.3,0-0.5,0.2-0.5,0.5v4.8l-1.1-1.1l-0.7,0.7	l2,2l0,0c0,0,0.1,0.1,0.1,0.1c0.1,0,0.1,0,0.2,0c0.1,0,0.3-0.1,0.4-0.1l2-2l-0.7-0.7l-1.1,1.1V27H20h5.5v4.3l-1.1-1.1l-0.7,0.7l2,2	c0.1,0.1,0.2,0.1,0.4,0.1c0.1,0,0.1,0,0.2,0c0.1,0,0.1-0.1,0.1-0.1l0,0L28.4,30.9z" class="st8"/><polyline points="18 36.5 20 38.5 20 36.5 20 27" class="st1"/><g><circle cx="29" cy="11" r="1.5" class="st1"/><line x1="28" x2="24" y1="12" y2="16" class="st1"/><g><polygon points="26.1 13.7 24.7 15.1 26.1 16.5 27.5 15.1 26.1 13.7" class="st9"/></g></g></svg>