<svg xmlns="http://www.w3.org/2000/svg" xmlns:xlink="http://www.w3.org/1999/xlink" x="0" y="0" version="1.1" viewBox="0 0 26 26" xml:space="preserve" style="enable-background:new 0 0 26 26"><rect width="16" height="11" x="8" y="4" class="str"/><polygon points="9.9 19 12.1 15 14.4 15" class="fil"/><line x1="3" x2="6" y1="4" y2="4" class="str"/><line x1="2" x2="6" y1="5.5" y2="5.5" class="str"/><line x1="1" x2="6" y1="7" y2="7" class="str"/><circle cx="12" cy="9.5" r="1" class="fil"/><circle cx="16" cy="9.5" r="1" class="fil"/><circle cx="20" cy="9.5" r="1" class="fil"/><polyline points="18 15 18 20 2 20 2 9 8 9" class="op7 str"/><polygon points="11.5 19.9 14.1 19.9 16.4 24" class="op7 fil"/><line x1="20" x2="25" y1="17" y2="17" class="op7 str"/><line x1="20" x2="24" y1="18.5" y2="18.5" class="op7 str"/><line x1="20" x2="23" y1="20" y2="20" class="op7 str"/><path d="M6,13.5c-0.6,0-1,0.4-1,1c0,0.6,0.4,1,1,1V13.5z" class="op7 fil"/></svg>