<svg xmlns="http://www.w3.org/2000/svg" xmlns:xlink="http://www.w3.org/1999/xlink" x="0" y="0" version="1.1" viewBox="0 0 26 26" xml:space="preserve" style="enable-background:new 0 0 26 26"><path d="M6,3c0,1.1-0.9,2-2,2S2,4.1,2,3s0.9-2,2-2" class="op6 str"/><path d="M4,1c1.1,0,2,0.9,2,2" class="str"/><path d="M20,3c0-1.1-0.9-2-2-2" class="str"/><path d="M6,23c0,1.1,0.9,2,2,2s2-0.9,2-2h14c0,1.1-0.9,2-2,2" class="str"/><line x1="6" x2="6" y1="23" y2="3" class="str"/><path d="M18,1H4C3.4,1,2.9,1.3,2.9,1.3" class="str"/><line x1="20" x2="20" y1="3" y2="23" class="str"/><line x1="8" x2="22" y1="25" y2="25" class="str"/><rect width="6" height="4" x="10" y="5" class="str"/><polygon points="11 11 12.1 8.8 13.3 9.2" class="fil"/><line x1="10" x2="16" y1="13" y2="13" class="op6 str str_rou"/><line x1="10" x2="16" y1="15" y2="15" class="op6 str str_rou"/><line x1="10" x2="16" y1="17" y2="17" class="op6 str str_rou"/><line x1="10" x2="16" y1="19" y2="19" class="str str_rou"/></svg>